#!OML:ASF H:\LiuWeirdWalks\Patient Classification 1\Patient 1\Session 1\male.ASF
:FULLY-SPECIFIED
:DEGREES
870
root 0.760235 18.4114 5.19133 4.16711 1.70819 7.11245
lowerback 11.3132 0.128573 6.85112
upperback 1.2788 1.7867 13.2636
thorax -5.29227 0.909758 10.2741
lowerneck -23.6925 1.9642 11.7556
upperneck 25.1506 3.5286 -17.4637
head 12.9097 0.403193 -8.37263
rclavicle 7.95139e-015 6.67916e-014
rhumerus -16.5302 -11.9176 -47.468
rradius 33.1912
rwrist -12.7162
rhand -18.4669 -4.59029
rfingers 7.12502
rthumb 7.81967 -34.4257
lclavicle 7.95139e-015 6.67916e-014
lhumerus -47.1754 -19.1797 105.846
lradius 47.514
lwrist 5.60897
lhand -2.14361 -4.96228
lfingers 7.12502
lthumb 23.5356 23.6178
rfemur -17.7413 -9.92433 12.2835
rtibia 31.4996
rfoot -11.3601 -16.2787
rtoes -4.52747
lfemur -15.1881 6.96101 -25.4864
ltibia 57.9963
lfoot 7.38809 6.80643
ltoes 6.28982
871
root 0.755046 18.4086 5.30308 4.07435 1.73203 6.91766
lowerback 11.4236 0.170678 6.96844
upperback 1.29558 1.87359 13.2807
thorax -5.34492 0.950508 10.2127
lowerneck -23.6617 1.90179 11.7084
upperneck 25.1962 3.45106 -17.4215
head 12.904 0.370241 -8.36118
rclavicle 0 1.11319e-013
rhumerus -15.929 -11.3315 -47.6412
rradius 33.8393
rwrist -13.0745
rhand -18.6067 -4.3918
rfingers 7.12502
rthumb 7.68478 -34.2322
lclavicle 0 1.11319e-013
lhumerus -47.2412 -18.8453 105.688
lradius 47.171
lwrist 5.60478
lhand -2.91816 -4.99836
lfingers 7.12502
lthumb 22.7925 23.6751
rfemur -17.2543 -9.88271 12.4546
rtibia 31.5544
rfoot -11.6197 -16.3784
rtoes -4.82676
lfemur -16.0279 7.01242 -25.1571
ltibia 58.2399
lfoot 6.16667 6.95198
ltoes 6.25535
872
root 0.751109 18.4045 5.4146 3.98727 1.75258 6.70776
lowerback 11.5299 0.210734 7.10423
upperback 1.30464 1.96102 13.2998
thorax -5.40296 0.991075 10.1429
lowerneck -23.6193 1.84435 11.6642
upperneck 25.2449 3.38233 -17.3834
head 12.8992 0.341486 -8.35051
rclavicle 7.95139e-016 -6.04305e-014
rhumerus -15.3617 -10.7619 -47.7955
rradius 34.5032
rwrist -13.4508
rhand -18.7654 -4.2445
rfingers 7.12502
rthumb 7.53161 -34.0904
lclavicle 7.95139e-016 -6.04305e-014
lhumerus -47.3077 -18.503 105.519
lradius 46.842
lwrist 5.54002
lhand -3.58204 -5.05217
lfingers 7.12502
lthumb 22.1553 23.6983
rfemur -16.775 -9.81726 12.6395
rtibia 31.6091
rfoot -11.8684 -16.4986
rtoes -5.13654
lfemur -16.8459 7.04292 -24.8333
ltibia 58.3422
lfoot 4.94442 7.06585
ltoes 6.19909
873
root 0.748368 18.3989 5.52617 3.9132 1.77849 6.4997
lowerback 11.624 0.244604 7.24119
upperback 1.30475 2.03992 13.3152
thorax -5.46223 1.02727 10.0694
lowerneck -23.5934 1.78736 11.6061
upperneck 25.3347 3.31732 -17.3272
head 12.9144 0.314879 -8.33314
rclavicle 1.59028e-015 -8.5875e-014
rhumerus -14.8287 -10.2057 -47.9395
rradius 35.1846
rwrist -13.8286
rhand -18.9207 -4.16924
rfingers 7.12502
rthumb 7.38167 -34.0205
lclavicle 1.59028e-015 -8.5875e-014
lhumerus -47.3742 -18.1574 105.335
lradius 46.5328
lwrist 5.44167
lhand -4.07226 -5.07034
lfingers 7.12502
lthumb 21.6846 23.7352
rfemur -16.3054 -9.74349 12.82
rtibia 31.6606
rfoot -12.1167 -16.6287
rtoes -5.4357
lfemur -17.6478 7.04152 -24.5357
ltibia 58.3044
lfoot 3.75252 7.17793
ltoes 6.26719
874
root 0.746772 18.3922 5.63794 3.84356 1.82337 6.28117
lowerback 11.7017 0.268748 7.3929
upperback 1.3018 2.10608 13.3326
thorax -5.51328 1.05675 9.99162
lowerneck -23.5725 1.73842 11.558
upperneck 25.4003 3.25864 -17.2766
head 12.9227 0.291138 -8.31692
rclavicle -1.66979e-014 5.40694e-014
rhumerus -14.34 -9.66177 -48.0703
rradius 35.9105
rwrist -14.2415
rhand -19.0654 -4.12353
rfingers 7.12502
rthumb 7.24203 -33.9796
lclavicle -1.66979e-014 5.40694e-014
lhumerus -47.422 -17.8139 105.141
lradius 46.2353
lwrist 5.3352
lhand -4.44848 -5.09115
lfingers 7.12502
lthumb 21.3232 23.7557
rfemur -15.8258 -9.65733 13.0089
rtibia 31.6978
rfoot -12.3704 -16.7833
rtoes -5.71203
lfemur -18.4283 6.99897 -24.2471
ltibia 58.13
lfoot 2.62274 7.30317
ltoes 6.61351
875
root 0.746349 18.3846 5.74962 3.7918 1.88973 6.0598
lowerback 11.7516 0.285478 7.55945
upperback 1.29425 2.16063 13.3477
thorax -5.55121 1.08 9.904
lowerneck -23.5509 1.69276 11.5339
upperneck 25.4546 3.20013 -17.2463
head 12.9272 0.26738 -8.31295
rclavicle -2.38542e-015 -3.49861e-014
rhumerus -13.8908 -9.15035 -48.1871
rradius 36.6708
rwrist -14.6645
rhand -19.1845 -4.11279
rfingers 7.12502
rthumb 7.12707 -33.9728
lclavicle -2.38542e-015 -3.49861e-014
lhumerus -47.4558 -17.4796 104.935
lradius 45.9632
lwrist 5.24596
lhand -4.69523 -5.09601
lfingers 7.12502
lthumb 21.0862 23.7775
rfemur -15.351 -9.57481 13.2
rtibia 31.7182
rfoot -12.627 -16.948
rtoes -5.9792
lfemur -19.2021 6.91042 -23.9775
ltibia 57.8191
lfoot 1.56468 7.45548
ltoes 7.07759
876
root 0.747057 18.3762 5.86122 3.74859 1.98128 5.83255
lowerback 11.7945 0.288625 7.73311
upperback 1.27631 2.19912 13.3652
thorax -5.59435 1.09521 9.81843
lowerneck -23.5331 1.63562 11.4811
upperneck 25.5397 3.1301 -17.1868
head 12.9416 0.239174 -8.2958
rclavicle -3.97569e-015 -9.54166e-015
rhumerus -13.4796 -8.65054 -48.2933
rradius 37.46
rwrist -15.0971
rhand -19.2667 -4.11962
rfingers 7.12502
rthumb 7.04769 -33.9823
lclavicle -3.97569e-015 -9.54166e-015
lhumerus -47.4796 -17.1235 104.715
lradius 45.7082
lwrist 5.14616
lhand -4.82694 -5.09421
lfingers 7.12502
lthumb 20.9597 23.7933
rfemur -14.8654 -9.49504 13.3952
rtibia 31.7151
rfoot -12.894 -17.1235
rtoes -6.21392
lfemur -19.9594 6.77892 -23.7208
ltibia 57.3729
lfoot 0.584964 7.64532
ltoes 7.62954
877
root 0.748727 18.3674 5.97267 3.72247 2.09854 5.6239
lowerback 11.8175 0.287206 7.89243
upperback 1.25124 2.22775 13.38
thorax -5.6331 1.10591 9.73958
lowerneck -23.5171 1.5869 11.4536
upperneck 25.6079 3.0686 -17.1543
head 12.9523 0.213895 -8.29218
rclavicle -1.51076e-014 -5.08889e-014
rhumerus -13.108 -8.18853 -48.3773
rradius 38.2727
rwrist -15.5302
rhand -19.3123 -4.06417
rfingers 7.12502
rthumb 7.00372 -33.9283
lclavicle -1.51076e-014 -5.08889e-014
lhumerus -47.4858 -16.7707 104.49
lradius 45.452
lwrist 4.96631
lhand -4.89798 -5.13617
lfingers 7.12502
lthumb 20.8914 23.7589
rfemur -14.38 -9.42038 13.5705
rtibia 31.6881
rfoot -13.1588 -17.3154
rtoes -6.44126
lfemur -20.7013 6.60369 -23.5041
ltibia 56.7873
lfoot -0.306451 7.87754
ltoes 8.22041
878
root 0.75105 18.3587 6.08357 3.70157 2.22718 5.40622
lowerback 11.8483 0.285038 8.05874
upperback 1.22197 2.2589 13.3993
thorax -5.68098 1.11773 9.66215
lowerneck -23.5047 1.53884 11.4317
upperneck 25.653 3.00558 -17.1304
head 12.9546 0.187151 -8.29159
rclavicle 3.97569e-015 -9.54166e-015
rhumerus -12.7542 -7.77656 -48.4429
rradius 39.0727
rwrist -15.9251
rhand -19.3394 -4.02012
rfingers 7.12502
rthumb 6.97752 -33.8851
lclavicle 3.97569e-015 -9.54166e-015
lhumerus -47.4702 -16.4148 104.262
lradius 45.1974
lwrist 4.74478
lhand -4.91392 -5.19766
lfingers 7.12502
lthumb 20.8761 23.6991
rfemur -13.8847 -9.32276 13.7593
rtibia 31.6293
rfoot -13.4177 -17.5358
rtoes -6.6472
lfemur -21.4158 6.41062 -23.2917
ltibia 56.0634
lfoot -1.10742 8.14512
ltoes 8.72887
879
root 0.754685 18.3503 6.19512 3.68712 2.3577 5.20519
lowerback 11.8645 0.284311 8.21141
upperback 1.19446 2.28738 13.4155
thorax -5.71864 1.12845 9.5892
lowerneck -23.5061 1.49108 11.4052
upperneck 25.6959 2.94108 -17.0996
head 12.9584 0.159685 -8.28761
rclavicle 9.54166e-015 -9.22361e-014
rhumerus -12.4218 -7.39402 -48.4867
rradius 39.8622
rwrist -16.3014
rhand -19.3556 -3.94792
rfingers 7.12502
rthumb 6.96194 -33.8134
lclavicle 9.54166e-015 -9.22361e-014
lhumerus -47.437 -16.0642 104.038
lradius 44.9457
lwrist 4.52768
lhand -4.86791 -5.25059
lfingers 7.12502
lthumb 20.9203 23.6413
rfemur -13.3772 -9.21865 13.929
rtibia 31.5363
rfoot -13.6697 -17.7639
rtoes -6.83523
lfemur -22.0881 6.20789 -23.1147
ltibia 55.1938
lfoot -1.81715 8.46103
ltoes 9.28585
880
root 0.759328 18.3429 6.30705 3.67113 2.49678 4.98713
lowerback 11.8821 0.281604 8.37831
upperback 1.1672 2.31606 13.44
thorax -5.75672 1.13901 9.51792
lowerneck -23.5227 1.44688 11.3766
upperneck 25.7182 2.87841 -17.0665
head 12.9574 0.132432 -8.28061
rclavicle 1.43125e-014 -3.49861e-014
rhumerus -12.1074 -7.03949 -48.5079
rradius 40.6253
rwrist -16.6175
rhand -19.3719 -3.87199
rfingers 7.12502
rthumb 6.94617 -33.738
lclavicle 1.43125e-014 -3.49861e-014
lhumerus -47.3924 -15.7276 103.828
lradius 44.7003
lwrist 4.33517
lhand -4.79377 -5.30362
lfingers 7.12502
lthumb 20.9916 23.5804
rfemur -12.8453 -9.09829 14.1204
rtibia 31.3988
rfoot -13.904 -18.0181
rtoes -7.01649
lfemur -22.7099 6.00113 -22.9297
ltibia 54.1798
lfoot -2.44817 8.81435
ltoes 9.7652
881
root 0.765039 18.3363 6.41936 3.65718 2.63543 4.78147
lowerback 11.9077 0.279779 8.5301
upperback 1.13614 2.3462 13.4644
thorax -5.80408 1.15062 9.45551
lowerneck -23.54 1.40579 11.3592
upperneck 25.7249 2.81763 -17.0452
head 12.9511 0.105586 -8.27901
rclavicle -2.78299e-014 -1.36764e-013
rhumerus -11.8297 -6.68117 -48.5036
rradius 41.3806
rwrist -16.8992
rhand -19.407 -3.81068
rfingers 7.12502
rthumb 6.91229 -33.6778
lclavicle -2.78299e-014 -1.36764e-013
lhumerus -47.3453 -15.409 103.636
lradius 44.4625
lwrist 4.14967
lhand -4.65849 -5.32492
lfingers 7.12502
lthumb 21.1215 23.5446
rfemur -12.2922 -8.96253 14.3019
rtibia 31.2118
rfoot -14.1174 -18.2949
rtoes -7.18178
lfemur -23.2757 5.79713 -22.7697
ltibia 53.0153
lfoot -3.00712 9.2051
ltoes 10.2726
882
root 0.771895 18.3307 6.53229 3.6433 2.78434 4.58051
lowerback 11.9278 0.273399 8.67326
upperback 1.10715 2.36835 13.4925
thorax -5.84576 1.15857 9.40382
lowerneck -23.5735 1.36048 11.3172
upperneck 25.7332 2.75103 -16.9974
head 12.9468 0.0763645 -8.26303
rclavicle 9.54166e-015 -4.45278e-014
rhumerus -11.5787 -6.33005 -48.4781
rradius 42.1223
rwrist -17.1328
rhand -19.415 -3.7278
rfingers 7.12502
rthumb 6.9046 -33.5952
lclavicle 9.54166e-015 -4.45278e-014
lhumerus -47.2801 -15.1179 103.464
lradius 44.227
lwrist 4.01902
lhand -4.4927 -5.3141
lfingers 7.12502
lthumb 21.2808 23.5376
rfemur -11.7094 -8.82527 14.4822
rtibia 30.9677
rfoot -14.2994 -18.5983
rtoes -7.33776
lfemur -23.7794 5.58775 -22.6253
ltibia 51.699
lfoot -3.48614 9.62521
ltoes 10.7962
883
root 0.78011 18.3265 6.64604 3.63367 2.92161 4.38782
lowerback 11.9416 0.269114 8.8087
upperback 1.07463 2.39182 13.5209
thorax -5.88815 1.16732 9.35683
lowerneck -23.5748 1.31847 11.2983
upperneck 25.7209 2.68782 -16.9725
head 12.929 0.0491052 -8.25768
rclavicle 4.92986e-014 4.13472e-014
rhumerus -11.3653 -5.97916 -48.4342
rradius 42.8518
rwrist -17.3171
rhand -19.4226 -3.64275
rfingers 7.12502
rthumb 6.8972 -33.5104
lclavicle 4.92986e-014 4.13472e-014
lhumerus -47.2256 -14.8556 103.318
lradius 44.0103
lwrist 3.93856
lhand -4.3143 -5.27594
lfingers 7.12502
lthumb 21.4521 23.5563
rfemur -11.1098 -8.67715 14.6585
rtibia 30.6674
rfoot -14.4316 -18.9305
rtoes -7.50842
lfemur -24.2186 5.38716 -22.5008
ltibia 50.2266
lfoot -3.89067 10.0681
ltoes 11.4016
884
root 0.789911 18.3241 6.76076 3.62666 3.04374 4.20937
lowerback 11.9535 0.26872 8.93454
upperback 1.03956 2.41905 13.5456
thorax -5.93272 1.17798 9.31047
lowerneck -23.5615 1.27133 11.2625
upperneck 25.7344 2.62142 -16.9263
head 12.9173 0.0220382 -8.24227
rclavicle 2.38542e-015 -3.49861e-014
rhumerus -11.1687 -5.65873 -48.379
rradius 43.5348
rwrist -17.4611
rhand -19.4204 -3.5432
rfingers 7.12502
rthumb 6.89933 -33.4108
lclavicle 2.38542e-015 -3.49861e-014
lhumerus -47.165 -14.6248 103.192
lradius 43.7998
lwrist 3.89054
lhand -4.119 -5.21478
lfingers 7.12502
lthumb 21.6397 23.596
rfemur -10.489 -8.51807 14.8229
rtibia 30.3074
rfoot -14.505 -19.2935
rtoes -7.68531
lfemur -24.5859 5.19065 -22.402
ltibia 48.5972
lfoot -4.21656 10.5332
ltoes 11.9215
